<svg width="180" height="251" viewBox="0 0 180 251" fill="none" xmlns="http://www.w3.org/2000/svg">
<rect opacity="0.05" y="226" width="266" height="2" fill="white"/>
<rect opacity="0.05" y="232" width="266" height="2" fill="white"/>
<rect opacity="0.05" y="249" width="266" height="2" fill="white"/>
<g opacity="0.5">
<path d="M27.2511 97.7858C25.9755 96.5947 24.2232 96.8071 23.1376 98.2844C21.958 99.9607 22.0144 102.558 23.265 104.144L27.1961 109.244C27.4527 109.579 27.8687 109.579 28.1253 109.244L32.0332 104.114C33.2771 102.519 33.3232 99.9224 32.1374 98.2542C31.048 96.7842 29.2963 96.583 28.0269 97.782C27.7956 98.0001 27.4836 98.0016 27.2511 97.7858Z" fill="#794BD8"/>
<path d="M27.6882 109.044C27.5966 109.267 27.5966 109.535 27.6882 109.758C27.7437 109.865 27.795 109.976 27.8416 110.09C27.9429 110.419 27.7663 110.778 27.5869 111.046C27.474 111.216 27.3495 111.442 27.4219 111.65C27.4574 111.725 27.5025 111.791 27.555 111.847C27.7994 112.153 27.9029 112.605 27.8276 113.036C27.7524 113.468 27.5094 113.816 27.1874 113.955" stroke="#F55F44"/>
</g>
<g opacity="0.5">
<path d="M156.251 0.785772C154.976 -0.405346 153.223 -0.192917 152.138 1.28444C150.958 2.96066 151.014 5.55753 152.265 7.14377L156.196 12.2438C156.453 12.5786 156.869 12.5786 157.125 12.2438L161.033 7.11355C162.277 5.519 162.323 2.92237 161.137 1.25422C160.048 -0.215799 158.296 -0.417043 157.027 0.781994C156.796 1.00005 156.484 1.00157 156.251 0.785772V0.785772Z" fill="#794BD8"/>
<path d="M156.688 12.0435C156.597 12.2665 156.597 12.5346 156.688 12.7575C156.744 12.8648 156.795 12.9757 156.842 13.09C156.943 13.4187 156.766 13.7775 156.587 14.0458C156.474 14.2158 156.349 14.4235 156.422 14.6502C156.457 14.725 156.502 14.7914 156.555 14.8467C156.799 15.1534 156.903 15.6048 156.828 16.0362C156.752 16.4677 156.509 16.8162 156.187 16.9547" stroke="#F55F44"/>
</g>
<g opacity="0.5">
<rect x="72.6471" y="139.04" width="0.705882" height="3.77778" fill="#47E6B1"/>
<path d="M75 140.596V141.262H71V140.596H75Z" fill="#47E6B1"/>
</g>
<g opacity="0.5">
<rect x="45.6471" y="44.04" width="0.705882" height="3.77778" fill="#47E6B1"/>
<path d="M48 45.5956V46.2622H44V45.5956H48Z" fill="#47E6B1"/>
</g>
<path opacity="0.5" d="M61.6688 76.048C61.1636 75.8198 60.9075 75.2517 61.0712 74.7225C61.0863 74.6834 61.0944 74.642 61.0951 74.6001V74.6001C61.1182 74.351 60.9699 74.1177 60.7344 74.0327C60.4989 73.9477 60.2357 74.0325 60.0941 74.2389V74.2389C60.0707 74.2726 60.0507 74.3086 60.0344 74.3463C59.806 74.851 59.2373 75.107 58.7077 74.9434C58.6679 74.9309 58.6268 74.9229 58.5852 74.9195V74.9195C58.3424 74.9039 58.1181 75.0496 58.034 75.2777C57.9498 75.5059 58.0258 75.7621 58.2207 75.9077V75.9077C58.2542 75.9316 58.2902 75.9516 58.3282 75.9674C58.8402 76.1892 59.1039 76.7597 58.9408 77.2929C58.9285 77.3328 58.9205 77.3738 58.9169 77.4153V77.4153C58.9012 77.6579 59.047 77.882 59.2754 77.9661C59.5037 78.0502 59.7602 77.9743 59.9059 77.7795V77.7795C59.9304 77.7464 59.9505 77.7103 59.9656 77.672C60.1898 77.1611 60.7609 76.8982 61.2953 77.06C61.3341 77.0726 61.3742 77.0806 61.4148 77.0839V77.0839C61.6576 77.0996 61.8819 76.9539 61.966 76.7257C62.0502 76.4976 61.9742 76.2413 61.7793 76.0958V76.0958C61.7447 76.0752 61.7075 76.0591 61.6688 76.048Z" fill="#4D8AF0"/>
<path opacity="0.5" d="M111.669 8.04039C111.164 7.81308 110.907 7.24702 111.071 6.71981C111.086 6.68088 111.094 6.6396 111.095 6.59786V6.59786C111.118 6.34967 110.97 6.11727 110.734 6.03259C110.499 5.94792 110.236 6.03236 110.094 6.23798V6.23798C110.071 6.27161 110.051 6.30748 110.034 6.34505C109.811 6.85369 109.241 7.11571 108.708 6.95478C108.668 6.94229 108.627 6.93431 108.585 6.93098V6.93098C108.342 6.91539 108.118 7.06057 108.034 7.28785C107.95 7.51513 108.026 7.77045 108.221 7.91547V7.91547C108.254 7.93928 108.29 7.95924 108.328 7.97495C108.84 8.19589 109.104 8.76432 108.941 9.29553C108.929 9.33523 108.921 9.37611 108.917 9.41747V9.41747C108.901 9.6592 109.047 9.88242 109.275 9.96619C109.504 10.05 109.76 9.97436 109.906 9.78033V9.78033C109.93 9.74739 109.95 9.71139 109.966 9.67326C110.19 9.16419 110.761 8.9023 111.295 9.06353C111.334 9.07602 111.374 9.08401 111.415 9.08733V9.08733C111.658 9.10292 111.882 8.95775 111.966 8.73046C112.05 8.50318 111.974 8.24786 111.779 8.10285V8.10285C111.745 8.07716 111.708 8.05615 111.669 8.04039Z" fill="#4D8AF0"/>
<path fill-rule="evenodd" clip-rule="evenodd" d="M175.45 196.152L192.13 209.008C192.13 209.008 215.413 198.027 213.932 207.687C213.12 212.982 206.058 214.722 199.857 215.218C205.397 217 210.004 220.867 205.589 229.247C196.981 245.581 149.332 241.563 149.332 241.563C149.332 241.563 149.232 241.343 149.088 240.999C141.66 241.742 132.397 240.507 125.943 239.334H125.692C110.489 242.753 77.5976 241.161 77.5976 241.161C77.5976 241.161 68.9728 237.146 65.8876 231.253C63.9233 227.517 66.2441 221.998 70.4365 219.012C63.7862 217.526 53.7079 214.261 56.4675 208.492C60.5056 200.057 76.9257 214.382 76.9257 214.382L100.072 198.316C106.262 195.22 105.457 170.45 105.457 170.45C105.457 170.45 105.176 155.313 107.349 150.885C107.99 149.568 110.026 148.343 112.563 147.276L112.579 147C112.78 143.463 112.978 140.001 111.13 137.379C110.501 136.487 109.696 135.812 108.89 135.136C108.185 134.546 107.48 133.954 106.89 133.216C105.296 131.238 104.737 128.42 104.61 125.71C104.346 119.933 106.338 113.51 110.822 111.102C111.226 110.885 111.649 110.702 112.073 110.519L112.073 110.519C112.894 110.164 113.716 109.809 114.411 109.196C116.154 107.648 116.635 104.992 117.113 102.347C117.605 99.625 118.095 96.9149 119.957 95.4354C121.027 94.5891 122.353 94.3483 123.636 94.1729C127.221 93.674 130.803 93.6293 134.42 93.6293C135.48 93.6324 136.554 93.4732 137.628 93.3142C138.919 93.1228 140.208 92.9318 141.468 93.0238C146.683 93.4053 149.719 99.0991 152.343 104.021C152.842 104.958 153.327 105.867 153.809 106.706C155.67 109.943 158.056 113.043 161.237 114.178C161.435 114.248 161.637 114.312 161.84 114.377C162.67 114.639 163.512 114.905 164.093 115.626C164.545 116.287 164.839 117.044 164.95 117.838C165.4 120.036 165.559 122.324 165.717 124.602C165.967 128.202 166.216 131.78 167.61 134.95C168.89 137.869 170.984 140.075 173.083 142.287C174.007 143.26 174.932 144.234 175.789 145.271C178.593 148.663 180.808 153.72 179.094 158C178.085 160.415 176.004 162.215 173.475 162.861C173.321 162.905 173.143 162.947 172.978 162.981C172.857 164.419 172.604 165.842 172.22 167.233C172.22 167.233 173.029 183.299 173.568 187.049C174.106 190.799 175.45 196.152 175.45 196.152ZM167.764 217.258C171.535 217.495 178.61 217.316 187.331 214.131L169.235 207.666C165.601 205.929 163.853 199.902 163.853 199.902C163.853 199.902 161.7 172.989 162.506 168.84C162.668 167.873 162.559 166.879 162.19 165.971C162.329 166.63 162.393 167.303 162.382 167.976V168.458C162.458 170.663 161.792 173.57 159.551 177.275C158.505 178.995 158.042 181.287 157.991 183.908C158.193 195.657 165.913 213.205 167.764 217.258ZM101.947 212.221L110.318 206.865C110.318 206.865 114.222 204.99 114.627 200.438L117.386 178.686C117.573 179.618 117.819 180.537 118.123 181.438C118.61 182.866 118.809 184.957 118.85 187.448C118.744 199.589 114.627 219.731 114.627 219.731H114.675C114.675 219.771 114.665 219.806 114.657 219.837C114.653 219.851 114.65 219.864 114.647 219.876L114.356 219.893C107.586 219.687 91.8066 219.095 82.9761 217.867L101.947 212.221ZM87.3502 224.94V224.899L85.2934 224.94H87.3502Z" fill="url(#paint0_linear_0_437)"/>
<path d="M155.838 110.473C157.645 113.656 159.975 116.713 163.078 117.812C164.053 118.158 165.146 118.356 165.836 119.24C166.278 119.89 166.564 120.634 166.673 121.413C167.801 126.98 167.046 133.133 169.259 138.225C171.051 142.347 174.482 145.03 177.208 148.354C179.935 151.678 182.073 156.649 180.421 160.851C179.447 163.217 177.424 164.986 174.957 165.627C172.675 166.251 170.293 165.991 167.976 165.579C164.922 165.035 161.812 164.192 159.268 162.112C154.866 158.514 153.004 152.06 150.702 146.316C149.619 143.626 148.181 140.808 145.803 139.848C143.079 138.745 140.015 140.586 138.246 143.286C136.478 145.987 135.695 149.38 134.837 152.646C133.871 156.334 132.651 160.161 130.11 162.573C127.862 164.778 124.534 165.447 121.616 164.279C118.789 163.097 116.555 160.098 115.904 156.622C114.904 151.266 117.303 144.836 114.356 140.6C113.211 138.96 111.463 138.066 110.236 136.513C108.702 134.568 108.143 131.799 108.023 129.14C107.764 123.462 109.698 117.136 114.059 114.786C115.224 114.158 116.524 113.829 117.548 112.914C120.995 109.832 119.368 102.265 122.936 99.3948C123.97 98.5594 125.267 98.3271 126.515 98.1503C130.01 97.665 133.482 97.6096 136.995 97.62C139.267 97.62 141.607 96.8574 143.848 97.0237C149.881 97.4778 152.911 105.319 155.838 110.473Z" fill="#965D7B"/>
<path d="M93 224.551L94.2827 240L184 239.455L182.289 222.589L151.956 219L98.767 222.266L93 224.551V224.551Z" fill="#575988"/>
<path opacity="0.05" d="M93 224.551L94.2827 240L184 239.455L182.289 222.589L151.956 219L98.767 222.266L93 224.551V224.551Z" fill="black"/>
<path d="M153.412 234L123 235.813C123 235.813 143.836 239.192 156 237.55L153.412 234Z" fill="#F7C4A7"/>
<path opacity="0.1" d="M153.412 234L123 235.813C123 235.813 143.836 239.192 156 237.55L153.412 234Z" fill="black"/>
<path d="M129.872 125C129.872 125 135.55 140.921 127.157 148.025C118.764 155.13 125.677 175 125.677 175L158.01 173.419C158.01 173.419 161.216 151.052 159.489 146.316C159.489 146.316 151.838 148.684 150.111 143.685C148.384 138.685 147.149 125 147.149 125L129.872 125Z" fill="#F7C4A7"/>
<path d="M119.634 221.904C119.634 221.904 92.0207 221.279 83.9018 219.271C75.7828 217.263 68.7833 226.901 71.6575 232.412C74.5317 237.922 82.5223 241.655 82.5223 241.655C82.5223 241.655 123.631 243.653 132.5 238.034C132.5 238.034 135.875 228.415 132.5 226.542H89.6469L121.253 225.917L119.634 221.904Z" fill="#575988"/>
<path d="M167.811 217.302C167.811 217.302 177.221 219.498 190.185 214.007C190.185 214.007 214.469 213.185 206.332 229.923C198.195 246.661 153.191 242.555 153.191 242.555C153.191 242.555 150.511 236.377 153.191 234.731C155.871 233.085 179.127 222.511 186.373 223.061L166.273 227.315L167.811 217.302Z" fill="#575988"/>
<path opacity="0.1" d="M149 131.407C148.503 128.428 148.212 126 148.212 126H130C130.841 127.918 131.425 129.902 131.741 131.919C136.989 134.873 144.038 134.664 149 131.407V131.407Z" fill="black"/>
<circle cx="139.5" cy="120.5" r="14.5" fill="#F7C4A7"/>
<path d="M127.454 144.555C127.454 144.555 110.14 147.798 108.042 152.074C105.943 156.35 106.206 171.012 106.206 171.012C106.206 171.012 106.991 195.004 100.959 197.988L78.3942 213.552C78.3942 213.552 62.3935 199.676 58.4564 207.845C54.5193 216.013 77.3469 219 77.3469 219L102.795 211.481L110.928 206.293C110.928 206.293 114.73 204.478 115.124 200.066L118.536 173.349L132.179 169.457H154.215L157.167 161.124C157.167 161.124 162.611 165.437 161.823 169.457C161.035 173.476 163.137 199.533 163.137 199.533C163.137 199.533 164.841 205.367 168.384 207.052L188.847 214.314C188.847 214.314 210.489 216.389 211.934 207.052C213.379 197.714 190.683 208.381 190.683 208.381L174.405 195.917C174.405 195.917 173.095 190.729 172.57 187.096C172.044 183.462 171.26 167.902 171.26 167.902C171.26 167.902 176.244 151.558 161.813 148.708L143.185 143L127.454 144.555Z" fill="#F7C4A7"/>
<path opacity="0.1" d="M114.72 149.204L117.399 166.748C117.399 166.748 114.644 174.906 117.399 182.934C120.154 190.963 114 220.879 114 220.879C114 220.879 146.281 231.115 166 219.323C166 219.323 151.495 189.025 157.635 178.925C163.775 168.826 157.739 164.875 157.739 164.875L158.682 146.297L154.24 145L151.626 163.387C151.626 163.387 133.591 175.817 120.261 164.943L117.385 145L114.72 149.204Z" fill="black"/>
<path opacity="0.07" d="M134 167.953C131.677 164.277 126.916 162.951 123 164.888C126.513 167.504 130.388 168.202 134 167.953Z" fill="white"/>
<path opacity="0.07" d="M147 167.957C149.321 164.278 154.083 162.949 158 164.889C154.492 167.496 150.616 168.193 147 167.957Z" fill="white"/>
<path opacity="0.1" d="M114.72 150.115L117.399 166.752C117.399 166.752 114.644 174.91 117.399 182.939C120.154 190.968 114 220.878 114 220.878C114 220.878 146.281 231.114 166 219.325C166 219.325 151.495 189.026 157.635 178.926C163.775 168.827 157.739 164.875 157.739 164.875L158.682 146.293L154.24 145L151.626 163.388C151.626 163.388 133.591 175.818 120.261 164.94L117.385 145L114.72 150.115Z" fill="black"/>
<path d="M114.589 149.726L117.399 166.752C117.399 166.752 114.644 174.91 117.399 182.939C120.154 190.968 114 220.878 114 220.878C114 220.878 146.281 231.114 166 219.325C166 219.325 151.495 189.023 157.635 178.923C163.775 168.823 157.739 164.875 157.739 164.875L158.682 146.293L154.24 145L151.626 163.388C151.626 163.388 133.591 175.818 120.261 164.94L117.385 145L114.589 149.726Z" fill="#FC6681"/>
<path d="M131 227.417L137.687 226.463C137.687 226.463 145.405 216.012 150.937 224.02C150.937 224.02 153.252 229.177 156.082 230.125C158.017 230.743 159.996 231.198 162 231.484L150.55 234.878C150.55 234.878 145.534 238 140.26 237.185C137.156 236.684 133.983 236.963 131 238V227.417Z" fill="#F7C4A7"/>
<path opacity="0.1" d="M121 183.475C121 183.475 135.528 185.354 138 182Z" fill="black"/>
<path opacity="0.1" d="M150 180C150 180 151.6 183.704 158 181.03Z" fill="black"/>
<path opacity="0.1" d="M123 145C123 145 129.733 148.38 131 146.352Z" fill="black"/>
<path opacity="0.1" d="M145 145C145 145 151.733 148.38 153 146.352Z" fill="black"/>
<path opacity="0.1" d="M130.068 228C130.068 228 132.165 235.696 130.068 235.968C127.971 236.24 125 234.7 125 234.528C125 234.356 126.321 229.46 126.321 229.46L130.068 228Z" fill="black"/>
<path d="M130.07 228C130.07 228 132.163 235.696 130.07 235.968C127.976 236.24 125 234.7 125 234.528C125 234.356 126.321 229.46 126.321 229.46L130.07 228Z" fill="#575988"/>
<path opacity="0.1" d="M121.869 146.008C120.943 148.33 120.615 151.07 121.596 153.364C122.346 155.114 123.812 156.531 124.094 158.435C124.448 160.827 122.81 163.252 123.423 165.581C123.655 166.47 124.198 167.224 124.75 167.931C126.429 170.077 128.659 172.157 131.25 171.991C131.662 167.661 128.2 163.46 129.333 159.284C129.739 157.788 130.692 156.544 131.267 155.117C132.222 152.751 132.086 150.049 131.74 147.494C131.238 143.787 129.966 139.243 126.568 137.509C125.009 136.71 122.793 136.651 122.238 138.819C121.933 139.975 122.645 141.062 122.741 142.193C122.86 143.629 122.383 144.72 121.869 146.008Z" fill="black"/>
<path d="M121.869 140.011C120.943 142.333 120.615 145.07 121.596 147.367C122.346 149.114 123.812 150.534 124.094 152.435C124.448 154.826 122.81 157.252 123.423 159.58C123.655 160.47 124.198 161.227 124.75 161.934C126.429 164.077 128.659 166.157 131.25 165.991C131.662 161.661 128.2 157.459 129.333 153.283C129.739 151.788 130.692 150.543 131.267 149.117C132.222 146.751 132.086 144.048 131.74 141.494C131.238 137.786 129.966 133.242 126.568 131.508C125.009 130.71 122.793 130.653 122.238 132.818C121.933 133.974 122.645 135.062 122.741 136.193C122.86 137.629 122.383 138.719 121.869 140.011Z" fill="#965D7B"/>
<path opacity="0.1" d="M121 113.658C121 113.658 139.054 111.111 139.549 114.93C140.045 118.75 156 125 156 125L152.041 114.93L144.744 102.448C144.744 102.448 131.383 101.441 130.77 102.448C130.157 103.454 123.099 106.777 123.099 106.777L121 113.658Z" fill="black"/>
<path d="M121 113.658C121 113.658 139.054 111.111 139.549 114.93C140.045 118.75 156 125 156 125L152.041 114.93L144.744 102.448C144.744 102.448 131.383 101.441 130.77 102.448C130.157 103.454 123.099 106.777 123.099 106.777L121 113.658Z" fill="#965D7B"/>
<path opacity="0.1" d="M148.893 139.862C150.033 140.999 150.839 142.342 151.245 143.784C151.635 145.165 151.668 146.602 152.019 147.984C152.806 150.926 155.146 153.399 157.582 155.626C158.374 156.433 159.339 157.109 160.43 157.62C161.546 158.078 162.968 158.173 164 157.62C163.019 156.947 162.486 155.922 162.134 154.907C161.639 153.488 161.42 152.012 161.483 150.534C161.589 148.068 162.456 145.464 161.225 143.216C160.514 141.916 159.19 140.93 157.841 140.045C156.902 139.413 155.89 138.859 154.82 138.393C152.823 137.565 150.539 137.202 148.335 137.019C145.467 136.776 147.975 138.96 148.893 139.862Z" fill="black"/>
<path d="M148.893 139.868C150.035 141.003 150.84 142.345 151.245 143.786C151.635 145.167 151.668 146.604 152.019 147.985C152.806 150.927 155.146 153.4 157.582 155.626C158.374 156.433 159.339 157.109 160.43 157.62C161.546 158.078 162.968 158.173 164 157.62C163.019 156.947 162.486 155.926 162.134 154.907C161.639 153.488 161.42 152.012 161.483 150.536C161.589 148.069 162.456 145.466 161.225 143.218C160.514 141.922 159.19 140.936 157.841 140.048C156.903 139.413 155.891 138.858 154.82 138.392C152.823 137.564 150.539 137.201 148.335 137.018C145.467 136.779 147.975 138.963 148.893 139.868Z" fill="#965D7B"/>
<defs>
<linearGradient id="paint0_linear_0_437" x1="213.979" y1="241.979" x2="213.979" y2="93.017" gradientUnits="userSpaceOnUse">
<stop stop-color="#808080" stop-opacity="0.25"/>
<stop offset="0.54" stop-color="#808080" stop-opacity="0.12"/>
<stop offset="1" stop-color="#808080" stop-opacity="0.1"/>
</linearGradient>
</defs>
</svg>
