<svg width="25" height="25" viewBox="0 0 25 25" fill="none" xmlns="http://www.w3.org/2000/svg">
<path fill-rule="evenodd" clip-rule="evenodd" d="M20.3421 2.44792H22.0789C23.5263 2.44792 24.7105 3.61979 24.7895 5.07812V22.2656C24.7895 23.724 23.5789 24.8958 22.1316 24.8958H2.73684C1.26316 24.8958 0.078949 23.6979 0.078949 22.2656V5.07812C0.078949 3.61979 1.26316 2.44792 2.73684 2.44792H4.47369V1.92708C4.47369 0.963542 5.26316 0.15625 6.26316 0.15625H6.6579C7.63158 0.15625 8.44737 0.9375 8.44737 1.92708V2.44792H10.4211V1.92708C10.4211 0.963542 11.2105 0.15625 12.2105 0.15625H12.6053C13.5789 0.15625 14.3947 0.9375 14.3947 1.92708V2.44792H16.3684V1.92708C16.3684 0.963542 17.1579 0.15625 18.1579 0.15625H18.5526C19.5263 0.15625 20.3421 0.9375 20.3421 1.92708V2.44792ZM18.1316 1.32812C17.8158 1.32812 17.5526 1.58854 17.5526 1.90104V4.16667C17.5526 4.47917 17.8158 4.73958 18.1316 4.73958H18.5263C18.8421 4.73958 19.1053 4.47917 19.1053 4.16667V1.90104C19.1053 1.58854 18.8421 1.32812 18.5263 1.32812H18.1316ZM11.6053 1.90104C11.6053 1.58854 11.8684 1.32812 12.1842 1.32812H12.5789C12.8947 1.32812 13.1579 1.58854 13.1579 1.90104V4.16667C13.1579 4.47917 12.8947 4.73958 12.5789 4.73958H12.1842C11.8684 4.73958 11.6053 4.47917 11.6053 4.16667V1.90104ZM6.21053 1.32812C5.89474 1.32812 5.63158 1.58854 5.63158 1.90104H5.60526V4.16667C5.60526 4.47917 5.86842 4.73958 6.18421 4.73958H6.57895C6.89474 4.73958 7.1579 4.47917 7.1579 4.16667V1.90104C7.1579 1.58854 6.89474 1.32812 6.57895 1.32812H6.21053ZM2.6579 3.64583H4.39474V4.16667C4.39474 5.15625 5.21053 5.9375 6.18421 5.9375H6.57895C7.57895 5.9375 8.36842 5.13021 8.36842 4.16667V3.64583H10.3421V4.16667C10.3421 5.15625 11.1579 5.9375 12.1316 5.9375H12.5263C13.5263 5.9375 14.3158 5.13021 14.3158 4.16667V3.64583H16.2895V4.16667C16.2895 5.15625 17.1053 5.9375 18.0789 5.9375H18.4737C19.4737 5.9375 20.2632 5.13021 20.2632 4.16667V3.64583H22C22.7895 3.64583 23.4211 4.27083 23.4211 5.05208V7.65625H1.23684V5.05208C1.23684 4.29688 1.86842 3.64583 2.6579 3.64583ZM2.6579 23.6458H22.0789C22.8421 23.6458 23.5 23.0208 23.5 22.2396V8.88021H1.23684V22.2396C1.23684 23.0208 1.86842 23.6458 2.6579 23.6458Z" fill="#4A4E64"/>
<path fill-rule="evenodd" clip-rule="evenodd" d="M16.3158 19.349C16.3158 18.2552 17.2105 17.3438 18.3421 17.3438C19.4474 17.3438 20.3684 18.2552 20.3684 19.349C20.3684 20.4427 19.4474 21.3542 18.3421 21.3542C17.2368 21.3542 16.3158 20.4427 16.3158 19.349ZM17.5263 19.349C17.5263 19.7917 17.8947 20.1562 18.3421 20.1562C18.7895 20.1562 19.1316 19.7917 19.1579 19.349C19.1579 18.9062 18.7895 18.5417 18.3421 18.5417C17.8947 18.5417 17.5263 18.9062 17.5263 19.349Z" fill="#4A4E64"/>
<path d="M7.81579 12.5781H5.02631C4.68421 12.5781 4.42105 12.8385 4.42105 13.1771C4.42105 13.5156 4.68421 13.776 5.02631 13.776H7.8421C8.18421 13.776 8.44737 13.5156 8.44737 13.1771C8.44737 12.8646 8.15789 12.5781 7.81579 12.5781Z" fill="#4A4E64"/>
<path d="M13.7631 18.75H10.9737C10.6316 18.75 10.3684 19.0104 10.3684 19.349C10.3684 19.6875 10.6316 19.9479 10.9737 19.9479H13.7895C14.1316 19.9479 14.3947 19.6875 14.3947 19.349C14.3684 19.0365 14.1053 18.75 13.7631 18.75Z" fill="#4A4E64"/>
<path d="M16.9211 13.8021H19.7368C20.079 13.8021 20.3421 13.5417 20.3421 13.2031C20.3421 12.8646 20.079 12.6042 19.7368 12.6042H16.9211C16.579 12.6042 16.3158 12.8646 16.3158 13.2031C16.3158 13.5156 16.579 13.8021 16.9211 13.8021Z" fill="#4A4E64"/>
<path d="M13.7631 12.5781H10.9737C10.6316 12.5781 10.3684 12.8385 10.3684 13.1771C10.3684 13.5156 10.6316 13.776 10.9737 13.776H13.7895C14.1316 13.776 14.3947 13.5156 14.3947 13.1771C14.3684 12.8646 14.1053 12.5781 13.7631 12.5781Z" fill="#4A4E64"/>
<path d="M7.81579 18.75H5.02631C4.68421 18.75 4.42105 19.0104 4.42105 19.349C4.42105 19.6875 4.68421 19.9479 5.02631 19.9479H7.8421C8.18421 19.9479 8.44737 19.6875 8.44737 19.349C8.44737 19.0365 8.15789 18.75 7.81579 18.75Z" fill="#4A4E64"/>
</svg>
