<svg width="17" height="23" viewBox="0 0 17 23" fill="none" xmlns="http://www.w3.org/2000/svg">
<path fill-rule="evenodd" clip-rule="evenodd" d="M3 5.04125V9H1.88425C0.843033 9 0 9.89472 0 10.9984V21.0016C0 22.1029 0.843608 23 1.88425 23H15.1157C16.157 23 17 22.1053 17 21.0016V10.9984C17 9.89706 16.1564 9 15.1157 9H14V5.04125C14 2.25921 11.5376 0 8.5 0C5.46177 0 3 2.25704 3 5.04125ZM2 21V11H15V21H2ZM12 9V5.04125C12 3.40365 10.4691 2 8.5 2C6.52959 2 5 3.40212 5 5.04125V9H12ZM8.5 13.7846C7.94386 13.7846 7.5 14.2322 7.5 14.7844V17.7848C7.5 18.3409 7.94772 18.7846 8.5 18.7846C9.05614 18.7846 9.5 18.337 9.5 17.7848V14.7844C9.5 14.2283 9.05229 13.7846 8.5 13.7846Z" fill="#686C83"/>
</svg>
