<svg width="26" height="26" viewBox="0 0 26 26" fill="none" xmlns="http://www.w3.org/2000/svg">
<path fill-rule="evenodd" clip-rule="evenodd" d="M23.2642 10.6889H24.6856C25.4107 10.6889 26 11.2782 25.9971 12.0062V13.9967C25.9971 14.7218 25.4078 15.3111 24.6827 15.3111H23.2613C23.1862 15.3111 23.1256 15.3602 23.1082 15.4296C22.854 16.4898 22.438 17.5009 21.866 18.4311C21.8284 18.4947 21.8371 18.5727 21.8891 18.6247L22.8944 19.63C23.4058 20.1442 23.4058 20.9762 22.8944 21.4904L21.4876 22.8973C20.9733 23.4087 20.1384 23.4087 19.6271 22.8973L18.6218 21.892C18.5698 21.84 18.4889 21.8313 18.4282 21.8689C17.498 22.438 16.4869 22.8569 15.4267 23.1111C15.3573 23.1284 15.3082 23.192 15.3082 23.2642V24.6856C15.3082 25.4107 14.7189 26 13.9938 26H12.0033C11.2782 26 10.6889 25.4107 10.6889 24.6856V23.2642C10.6889 23.1891 10.6398 23.1284 10.5704 23.1111C9.51022 22.8569 8.49911 22.4409 7.56889 21.8689C7.50533 21.8313 7.42733 21.84 7.37533 21.892L6.37 22.8973C5.85867 23.4087 5.02378 23.4087 4.50956 22.8973L3.10267 21.4904C2.59133 20.9762 2.59133 20.1442 3.10267 19.63L4.108 18.6247C4.16 18.5727 4.16867 18.4918 4.13111 18.4311C3.562 17.5009 3.14311 16.4898 2.88889 15.4296C2.87156 15.3602 2.808 15.3111 2.73578 15.3111H1.31444C0.589333 15.3111 0 14.7218 0 13.9938V12.0033C0 11.2782 0.589333 10.6889 1.31444 10.6889H2.73578C2.808 10.6889 2.87156 10.6398 2.88889 10.5704C3.14311 9.51022 3.55911 8.49911 4.13111 7.56889C4.16867 7.50533 4.16 7.42733 4.108 7.37533L3.10267 6.37C2.59133 5.85578 2.59133 5.02378 3.10267 4.50956L4.50956 3.10267C5.02089 2.59133 5.85578 2.59133 6.37 3.10267L7.37533 4.108C7.42733 4.16 7.50822 4.16867 7.56889 4.13111C8.49911 3.562 9.51022 3.14311 10.5704 2.88889C10.6398 2.87156 10.6889 2.808 10.6889 2.73578V1.31444C10.6889 0.589333 11.2782 0 12.0062 0H13.9967C14.7218 0 15.3111 0.589333 15.3111 1.31444V2.73578C15.3111 2.808 15.3602 2.87156 15.4296 2.88889C16.4898 3.14311 17.5009 3.55911 18.4311 4.13111C18.4947 4.16867 18.5727 4.16 18.6247 4.108L19.63 3.10267C20.1442 2.59133 20.9791 2.59133 21.4904 3.10267L22.8973 4.50956C23.4087 5.02378 23.4087 5.85578 22.8973 6.37L21.892 7.37533C21.84 7.42733 21.8313 7.50822 21.8689 7.56889C22.438 8.49911 22.8569 9.51022 23.1111 10.5704C23.1284 10.6398 23.192 10.6889 23.2642 10.6889ZM24.6856 14.1556C24.7722 14.1556 24.8444 14.0862 24.8444 13.9967V12.0033C24.8444 11.9167 24.7751 11.8444 24.6856 11.8444H23.2642C22.6547 11.8444 22.1289 11.4313 21.9902 10.842C21.7649 9.90022 21.3951 9.00178 20.8867 8.17556C20.566 7.65556 20.6469 6.99111 21.0773 6.56067L22.0827 5.55533C22.1462 5.49178 22.1462 5.39067 22.0827 5.32711L20.6758 3.92022C20.6122 3.85667 20.5111 3.85667 20.4476 3.92022L19.4422 4.92556C19.0089 5.356 18.3473 5.434 17.8273 5.11622C17.0011 4.61067 16.1027 4.238 15.1609 4.01267C14.5687 3.87111 14.1556 3.34533 14.1556 2.73578V1.31444C14.1556 1.22778 14.0833 1.15556 13.9938 1.15556H12.0033C11.9167 1.15556 11.8444 1.22778 11.8444 1.31444V2.73578C11.8444 3.34533 11.4313 3.87111 10.842 4.00978C9.90022 4.23511 9.00178 4.60489 8.17556 5.11333C7.65556 5.43111 6.99111 5.35311 6.56067 4.92267L5.55533 3.91733C5.49178 3.85378 5.39067 3.85378 5.32711 3.91733L3.92022 5.32422C3.85667 5.38778 3.85667 5.48889 3.92022 5.55244L4.92556 6.55778C5.356 6.99111 5.434 7.65267 5.11622 8.17267C4.61067 8.99889 4.238 9.89733 4.01267 10.8391C3.87111 11.4313 3.34533 11.8444 2.73578 11.8444H1.31444C1.22778 11.8444 1.15556 11.9167 1.15556 12.0062V13.9967C1.15556 14.0833 1.22778 14.1556 1.31444 14.1556H2.73578C3.34533 14.1556 3.87111 14.5687 4.00978 15.1609C4.23511 16.1027 4.60489 17.0011 5.11333 17.8273C5.434 18.3473 5.35311 19.0118 4.92267 19.4422L3.91733 20.4476C3.85378 20.5111 3.85378 20.6122 3.91733 20.6758L5.32422 22.0827C5.38778 22.1462 5.48889 22.1462 5.55244 22.0827L6.55778 21.0773C6.812 20.8231 7.14711 20.6902 7.48511 20.6902C7.722 20.6902 7.95889 20.7538 8.17267 20.8838C8.99889 21.3893 9.89733 21.762 10.8391 21.9873C11.4313 22.1289 11.8444 22.6547 11.8444 23.2642V24.6856C11.8444 24.7722 11.9167 24.8444 12.0062 24.8444H13.9967C14.0833 24.8444 14.1556 24.7751 14.1556 24.6856V23.2642C14.1556 22.6547 14.5687 22.1289 15.158 21.9902C16.0998 21.7649 16.9982 21.3951 17.8244 20.8867C18.3444 20.566 19.0089 20.6469 19.4393 21.0773L20.4447 22.0827C20.5082 22.1462 20.6093 22.1462 20.6729 22.0827L22.0798 20.6758C22.1433 20.6122 22.1433 20.5111 22.0798 20.4476L21.0744 19.4422C20.644 19.0089 20.566 18.3473 20.8838 17.8273C21.3893 17.0011 21.762 16.1027 21.9873 15.1609C22.1289 14.5687 22.6547 14.1556 23.2642 14.1556H24.6856Z" fill="#4A4E64"/>
<path fill-rule="evenodd" clip-rule="evenodd" d="M6.93335 13C6.93335 9.65468 9.65468 6.93335 13 6.93335C16.3453 6.93335 19.0667 9.65468 19.0667 13C19.0667 16.3453 16.3453 19.0667 13 19.0667C9.65468 19.0667 6.93335 16.3453 6.93335 13ZM8.08891 13C8.08891 15.7069 10.2931 17.9111 13 17.9111C15.7069 17.9111 17.9111 15.7069 17.9111 13C17.9111 10.2931 15.7069 8.08891 13 8.08891C10.2931 8.08891 8.08891 10.2931 8.08891 13Z" fill="#4A4E64"/>
</svg>
