<svg width="41" height="21" viewBox="0 0 41 21" fill="none" xmlns="http://www.w3.org/2000/svg">
<path fill-rule="evenodd" clip-rule="evenodd" d="M37.5833 6.77419H40.3167C40.6941 6.77419 41 7.07748 41 7.45161V14.2258C41 14.5999 40.6941 14.9032 40.3167 14.9032H37.5833V16.2581C37.5833 17.3804 36.6655 18.2903 35.5333 18.2903H34.1667C33.9333 18.2881 33.7022 18.2459 33.4833 18.1657V18.2903C33.4833 19.4127 32.5655 20.3226 31.4333 20.3226H30.0667C28.9345 20.3226 28.0167 19.4127 28.0167 18.2903V14.9032H12.9833V18.9677C12.9833 20.0901 12.0655 21 10.9333 21H9.56667C8.43448 21 7.51667 20.0901 7.51667 18.9677V18.8431C7.29782 18.9233 7.06665 18.9655 6.83333 18.9677H5.46667C4.33448 18.9677 3.41667 18.0579 3.41667 16.9355V14.9032H0.683333C0.305939 14.9032 0 14.5999 0 14.2258V7.45161C0 7.07748 0.305939 6.77419 0.683333 6.77419H3.41667V5.41935C3.41667 4.29697 4.33448 3.3871 5.46667 3.3871H6.83333C7.06665 3.38934 7.29782 3.43151 7.51667 3.51174V2.70968C7.51667 1.58729 8.43448 0.677419 9.56667 0.677419H10.9333C12.0655 0.677419 12.9833 1.58729 12.9833 2.70968V6.77419H28.0167V2.03226C28.0167 0.909873 28.9345 0 30.0667 0H31.4333C32.5655 0 33.4833 0.909873 33.4833 2.03226V2.83432C33.7022 2.75409 33.9333 2.71192 34.1667 2.70968H35.5333C36.6655 2.70968 37.5833 3.61955 37.5833 4.74194V6.77419ZM1.36667 8.12903V13.5484H3.41667V8.12903H1.36667ZM6.83333 17.6129H5.46667C5.08927 17.6129 4.78333 17.3096 4.78333 16.9355V5.41935C4.78333 5.04523 5.08927 4.74194 5.46667 4.74194H6.83333C7.21073 4.74194 7.51667 5.04523 7.51667 5.41935V16.9355C7.51667 17.3096 7.21073 17.6129 6.83333 17.6129ZM10.9333 19.6452C11.3107 19.6452 11.6167 19.3419 11.6167 18.9677V2.70968C11.6167 2.33555 11.3107 2.03226 10.9333 2.03226H9.56667C9.18927 2.03226 8.88333 2.33555 8.88333 2.70968V18.9677C8.88333 19.3419 9.18927 19.6452 9.56667 19.6452H10.9333ZM12.9833 13.5484V8.12903H28.0167V13.5484H12.9833ZM31.4333 18.9677C31.8107 18.9677 32.1167 18.6645 32.1167 18.2903V2.03226C32.1167 1.65813 31.8107 1.35484 31.4333 1.35484H30.0667C29.6893 1.35484 29.3833 1.65813 29.3833 2.03226V18.2903C29.3833 18.6645 29.6893 18.9677 30.0667 18.9677H31.4333ZM36.2167 16.2581C36.2167 16.6322 35.9107 16.9355 35.5333 16.9355H34.1667C33.7893 16.9355 33.4833 16.6322 33.4833 16.2581V4.74194C33.4833 4.36781 33.7893 4.06452 34.1667 4.06452H35.5333C35.9107 4.06452 36.2167 4.36781 36.2167 4.74194V16.2581ZM37.5833 13.5484H39.6333V8.12903H37.5833V13.5484Z" fill="#E68342"/>
</svg>
