<svg width="312" height="169" viewBox="0 0 312 169" fill="none" xmlns="http://www.w3.org/2000/svg">
<path opacity="0.1" d="M312 32.5509C312.01 21.3987 309.874 10.3483 305.707 0L-44.3292 36.6609C-47.9289 43.1729 -50.6835 50.1156 -52.5266 57.3217L55.8672 73.4393L-55 85.1917C-51.6652 131.748 -11.664 168.513 37.2043 168.513C61.7999 168.513 84.1477 159.195 100.711 144.001C117.321 159.481 139.884 169 164.746 169C201.634 169 233.468 148.044 248.295 117.743C278.039 108.341 301.127 84.6712 309.052 55.082L171.967 33.8839H311.98C311.98 33.4407 312 32.9975 312 32.5509Z" fill="#FF7363"/>
</svg>
