<svg width="21" height="21" viewBox="0 0 21 21" fill="none" xmlns="http://www.w3.org/2000/svg">
<path id="Shape" fill-rule="evenodd" clip-rule="evenodd" d="M15.1705 14.2222L20.8446 19.9069C20.9441 20.0063 21 20.1411 21 20.2817C21 20.4223 20.9441 20.5572 20.8446 20.6565L20.6565 20.8446C20.5572 20.9441 20.4223 21 20.2817 21C20.1411 21 20.0063 20.9441 19.9069 20.8446L14.2222 15.1705C10.7035 18.1798 5.43602 17.8718 2.29203 14.473C-0.851953 11.0741 -0.749235 5.79858 2.52467 2.52467C5.79858 -0.749235 11.0741 -0.851953 14.473 2.29203C17.8718 5.43602 18.1798 10.7035 15.1705 14.2222ZM8.5 1C4.35786 1 1 4.35786 1 8.5C1.00601 12.6396 4.36036 15.994 8.5 16C12.6421 16 16 12.6421 16 8.5C16 4.35786 12.6421 1 8.5 1Z" fill="#393C50"/>
</svg>
